<?xml version="1.0" standalone="no"?>
<!DOCTYPE svg PUBLIC "-//W3C//DTD SVG 20010904//EN"
 "http://www.w3.org/TR/2001/REC-SVG-20010904/DTD/svg10.dtd">
<svg version="1.0" xmlns="http://www.w3.org/2000/svg"
 width="284.000000pt" height="177.000000pt" viewBox="0 0 284.000000 177.000000"
 preserveAspectRatio="xMidYMid meet">

<g transform="translate(0.000000,177.000000) scale(0.100000,-0.100000)"
fill="#000000" stroke="none">
<path d="M1811 1608 c-1 -34 1 -59 5 -56 9 9 13 118 4 118 -4 0 -8 -28 -9 -62z"/>
<path d="M1213 1653 c16 -4 23 -35 18 -85 -1 -10 3 -18 8 -18 6 0 11 21 11 49
0 39 4 51 18 54 9 3 -3 5 -28 5 -25 0 -37 -2 -27 -5z"/>
<path d="M1721 1610 c0 -27 4 -52 9 -55 6 -4 10 14 10 44 0 47 2 50 28 54 22
3 21 4 -9 6 l-36 1 -2 -50z"/>
<path d="M1300 1615 c-10 -12 -10 -21 -2 -40 11 -24 45 -34 56 -17 3 5 -5 8
-17 8 -29 -1 -38 50 -10 57 15 4 15 5 2 6 -9 0 -22 -6 -29 -14z"/>
<path d="M1388 1600 c-3 -16 -1 -35 4 -42 5 -8 8 2 8 25 0 31 3 38 18 35 11
-2 19 -16 23 -38 l6 -35 2 43 c1 40 0 42 -28 42 -24 0 -29 -5 -33 -30z"/>
<path d="M1510 1620 c8 -5 20 -10 25 -10 6 0 3 5 -5 10 -8 5 -19 10 -25 10 -5
0 -3 -5 5 -10z"/>
<path d="M1573 1623 c-18 -7 -16 -48 2 -63 9 -8 15 -9 15 -2 0 6 -4 13 -9 16
-5 3 -7 15 -4 27 5 16 11 19 30 14 16 -4 22 -2 18 5 -6 10 -31 12 -52 3z"/>
<path d="M1661 1588 c2 -34 3 -37 6 -13 2 17 12 36 21 43 14 11 13 12 -6 12
-19 0 -22 -5 -21 -42z"/>
<path d="M1854 1605 c-8 -34 15 -60 45 -50 18 5 22 13 19 38 -2 26 -8 33 -30
35 -22 3 -29 -2 -34 -23z m54 -9 c2 -10 -1 -23 -7 -29 -16 -16 -44 14 -35 37
8 22 38 17 42 -8z"/>
<path d="M1944 1614 c3 -9 9 -27 12 -40 3 -13 10 -24 15 -24 13 0 11 28 -1 32
-6 2 -12 13 -13 26 0 12 -5 22 -10 22 -5 0 -6 -7 -3 -16z"/>
<path d="M1987 1624 c-4 -4 -7 -14 -7 -23 0 -14 2 -14 10 -1 9 13 10 13 10 -1
0 -8 6 -23 13 -34 13 -16 15 -14 24 24 6 23 7 41 2 41 -5 0 -9 -8 -9 -18 0
-31 -13 -34 -24 -6 -6 14 -14 22 -19 18z"/>
<path d="M1350 1611 c0 -5 -8 -12 -17 -14 -14 -4 -12 -5 5 -6 13 -1 22 5 22
14 0 8 -2 15 -5 15 -3 0 -5 -4 -5 -9z"/>
<path d="M1480 1613 c0 -7 9 -17 20 -23 25 -13 26 -27 3 -34 -11 -3 -7 -4 7
-3 30 2 33 25 5 41 -11 6 -23 16 -27 21 -5 6 -8 5 -8 -2z"/>
<path d="M1758 1603 c7 -3 16 -2 19 1 4 3 -2 6 -13 5 -11 0 -14 -3 -6 -6z"/>
<path d="M1612 1572 c-11 -25 -11 -25 4 -10 9 9 15 21 13 27 -2 6 -10 -2 -17
-17z"/>
<path d="M1635 1520 c-3 -5 1 -10 10 -10 9 0 13 5 10 10 -3 6 -8 10 -10 10 -2
0 -7 -4 -10 -10z"/>
<path d="M1770 1520 c0 -5 5 -10 10 -10 6 0 10 5 10 10 0 6 -4 10 -10 10 -5 0
-10 -4 -10 -10z"/>
<path d="M1515 1499 c37 -116 53 -126 78 -46 20 62 20 67 7 67 -5 0 -15 -18
-21 -40 -7 -22 -15 -40 -19 -40 -3 0 -11 17 -16 37 -5 20 -15 38 -23 41 -10 3
-11 -2 -6 -19z"/>
<path d="M1630 1445 c0 -25 5 -45 10 -45 6 0 10 20 10 45 0 25 -4 45 -10 45
-5 0 -10 -20 -10 -45z"/>
<path d="M1687 1483 c-15 -14 -6 -34 20 -44 19 -7 23 -13 15 -21 -8 -8 -16 -7
-28 3 -15 12 -17 12 -12 -1 3 -9 17 -15 34 -15 39 0 46 31 10 45 -35 13 -34
32 0 24 19 -5 25 -4 20 5 -8 12 -48 15 -59 4z"/>
<path d="M1770 1445 c0 -25 5 -45 10 -45 6 0 10 20 10 45 0 25 -4 45 -10 45
-5 0 -10 -20 -10 -45z"/>
<path d="M1819 1469 c-16 -31 3 -69 36 -69 17 0 29 8 36 24 15 32 -4 66 -36
66 -15 0 -29 -9 -36 -21z m58 -33 c-8 -20 -36 -21 -43 -1 -4 8 0 22 7 31 11
13 14 13 27 0 8 -8 12 -22 9 -30z"/>
<path d="M1920 1443 c0 -53 18 -57 22 -5 2 20 8 37 13 37 6 0 11 -17 13 -37 4
-53 22 -47 22 7 0 44 0 44 -35 43 -34 -1 -35 -2 -35 -45z"/>
<path d="M2020 1465 c-4 -39 -2 -86 4 -92 3 -4 6 3 6 15 0 32 17 36 36 7 9
-14 21 -25 26 -25 6 0 1 14 -10 32 -18 29 -19 33 -5 55 8 13 11 23 7 23 -5 0
-15 -9 -22 -20 -16 -26 -30 -25 -35 3 -4 20 -5 20 -7 2z"/>
<path d="M2117 1444 c-12 -13 -8 -51 8 -64 12 -10 21 -10 38 -2 21 10 21 11
-5 11 -35 1 -37 21 -2 21 19 0 25 5 22 18 -3 17 -48 29 -61 16z m43 -14 c0 -5
-7 -10 -15 -10 -8 0 -15 5 -15 10 0 6 7 10 15 10 8 0 15 -4 15 -10z"/>
<path d="M2200 1415 c0 -19 5 -35 10 -35 6 0 10 13 10 29 0 16 6 32 13 34 6 3
2 6 -10 6 -20 1 -23 -4 -23 -34z"/>
<path d="M2255 1440 c-4 -7 2 -9 19 -4 16 4 26 2 26 -5 0 -6 -9 -11 -19 -11
-47 0 -32 -45 15 -45 23 -1 25 2 22 35 -3 30 -7 35 -30 38 -14 2 -29 -2 -33
-8z m43 -41 c-2 -6 -8 -10 -13 -10 -5 0 -11 4 -13 10 -2 6 4 11 13 11 9 0 15
-5 13 -11z"/>
<path d="M2347 1443 c-13 -13 -7 -24 20 -34 19 -7 23 -13 15 -21 -8 -8 -15 -8
-27 2 -9 7 -15 8 -15 2 0 -13 36 -26 50 -17 18 11 10 35 -15 45 -14 5 -25 12
-25 16 0 3 11 4 25 2 14 -3 25 -1 25 3 0 10 -44 12 -53 2z"/>
<path d="M1075 1421 c-8 -15 3 -31 21 -31 9 0 14 7 12 17 -4 20 -24 28 -33 14z"/>
<path d="M340 1330 c0 -49 -1 -93 -2 -97 -2 -5 27 -9 64 -11 58 -2 67 -1 62
13 -4 10 -20 15 -50 15 l-44 0 0 85 c0 69 -3 85 -15 85 -12 0 -15 -17 -15 -90z"/>
<path d="M513 1355 c-43 -30 -33 -116 15 -133 34 -11 77 -1 77 18 0 15 -8 16
-36 5 -10 -3 -24 1 -35 12 -17 17 -16 18 34 21 48 3 52 5 52 28 0 52 -62 81
-107 49z m65 -38 c3 -13 -3 -16 -22 -15 -25 2 -34 17 -19 32 12 12 38 2 41
-17z"/>
<path d="M668 1359 c-21 -12 -24 -39 -5 -39 7 0 18 5 24 11 13 13 43 5 43 -11
0 -5 -10 -10 -23 -10 -31 0 -67 -27 -67 -50 0 -24 44 -55 62 -44 7 4 25 7 40
6 28 -2 28 -2 28 56 0 44 -5 63 -18 75 -21 19 -58 22 -84 6z m60 -91 c-2 -13
-11 -24 -21 -26 -22 -4 -35 27 -16 39 25 16 41 10 37 -13z"/>
<path d="M800 1295 c0 -68 2 -75 19 -75 17 0 20 8 23 53 3 45 6 52 26 55 14 2
22 10 22 23 0 21 -20 25 -38 7 -9 -9 -12 -9 -12 0 0 7 -9 12 -20 12 -18 0 -20
-7 -20 -75z"/>
<path d="M910 1294 c0 -64 2 -74 18 -74 14 0 18 9 18 50 0 54 13 76 38 67 12
-5 16 -21 16 -62 0 -49 2 -55 21 -55 20 0 21 4 17 65 -2 35 -7 68 -11 72 -5 4
-33 8 -63 9 l-54 2 0 -74z"/>
<path d="M1070 1295 c0 -68 2 -75 20 -75 18 0 20 7 20 75 0 68 -2 75 -20 75
-18 0 -20 -7 -20 -75z"/>
<path d="M1150 1294 c0 -67 2 -74 19 -74 17 0 20 7 19 51 0 55 11 75 36 66 12
-5 16 -21 16 -62 0 -49 2 -55 21 -55 20 0 21 4 17 65 -2 35 -7 68 -11 72 -5 4
-33 8 -63 9 l-54 2 0 -74z"/>
<path d="M1326 1351 c-20 -22 -21 -90 -2 -116 9 -12 25 -18 49 -17 27 1 35 -2
31 -12 -7 -18 -37 -26 -57 -15 -10 6 -18 5 -22 -1 -11 -18 6 -30 44 -30 59 0
71 21 71 122 l0 85 -49 1 c-35 1 -53 -4 -65 -17z m72 -19 c15 -10 12 -69 -4
-83 -31 -25 -66 30 -44 70 11 22 27 26 48 13z"/>
<path d="M842 1171 c-2 -38 -4 -43 -22 -38 -11 3 -20 1 -20 -4 0 -15 40 -10
46 5 3 8 4 29 1 48 -3 29 -4 28 -5 -11z"/>
<path d="M893 1173 c21 -6 23 -43 1 -43 -8 0 -12 5 -9 10 3 6 1 10 -4 10 -6 0
-11 -7 -11 -15 0 -9 9 -15 25 -15 21 0 25 5 25 30 0 25 -4 30 -22 29 -17 -1
-19 -2 -5 -6z"/>
<path d="M946 1160 c10 -40 22 -46 34 -15 6 15 9 30 6 32 -2 3 -7 -6 -11 -18
l-7 -22 -15 24 -14 24 7 -25z"/>
<path d="M1028 1170 c12 -5 22 -16 22 -25 0 -18 -26 -20 -33 -2 -3 7 -6 5 -6
-5 -1 -13 7 -18 24 -18 20 0 25 5 25 24 0 23 -17 37 -43 35 -7 0 -2 -4 11 -9z"/>
<path d="M1548 1174 c-12 -11 -10 -134 2 -134 6 0 10 16 10 35 0 23 6 38 15
42 21 7 24 3 28 -37 5 -45 27 -52 27 -8 0 46 -13 62 -43 56 -23 -4 -26 -1 -29
24 -2 17 -6 26 -10 22z"/>
<path d="M642 1148 c2 -16 6 -24 11 -19 5 5 5 17 -2 28 -9 16 -10 15 -9 -9z"/>
<path d="M1170 1106 c0 -76 17 -90 22 -18 l3 47 16 -44 c20 -57 34 -61 49 -14
19 59 30 62 30 10 0 -26 5 -47 10 -47 6 0 10 28 10 65 0 52 -3 65 -15 65 -9 0
-18 -8 -22 -17 -3 -10 -13 -34 -21 -53 l-14 -35 -17 50 c-11 29 -25 51 -34 53
-15 3 -17 -6 -17 -62z"/>
<path d="M1655 1160 c3 -5 10 -10 16 -10 5 0 9 5 9 10 0 6 -7 10 -16 10 -8 0
-12 -4 -9 -10z"/>
<path d="M252 1140 c0 -14 2 -19 5 -12 2 6 2 18 0 25 -3 6 -5 1 -5 -13z"/>
<path d="M191 1124 c0 -11 3 -14 6 -6 3 7 2 16 -1 19 -3 4 -6 -2 -5 -13z"/>
<path d="M376 1127 c3 -10 9 -15 12 -12 3 3 0 11 -7 18 -10 9 -11 8 -5 -6z"/>
<path d="M471 1124 c0 -11 3 -14 6 -6 3 7 2 16 -1 19 -3 4 -6 -2 -5 -13z"/>
<path d="M1340 1120 c0 -6 11 -8 25 -4 19 5 25 2 25 -10 0 -9 -8 -16 -19 -16
-10 0 -24 -7 -31 -15 -18 -22 -1 -37 43 -39 34 -1 35 -1 30 34 -3 19 -6 41 -9
48 -4 14 -64 17 -64 2z m50 -55 c0 -8 -6 -15 -14 -15 -17 0 -28 14 -19 24 12
12 33 6 33 -9z"/>
<path d="M1446 1114 c-20 -52 12 -96 54 -74 27 15 25 19 -7 17 -22 -2 -29 3
-31 22 -5 32 12 48 33 31 17 -14 31 -8 20 9 -10 17 -62 13 -69 -5z"/>
<path d="M1650 1084 c0 -58 21 -55 25 4 3 31 0 42 -11 42 -10 0 -14 -13 -14
-46z"/>
<path d="M1700 1085 c0 -25 5 -45 10 -45 6 0 10 16 10 35 0 23 6 38 16 42 20
7 34 -13 34 -49 0 -16 5 -28 10 -28 11 0 14 49 4 74 -4 11 -19 16 -45 16 l-39
0 0 -45z"/>
<path d="M1822 1118 c-31 -31 5 -92 49 -81 28 8 23 19 -8 18 -14 0 -28 6 -30
13 -3 8 7 12 31 12 39 0 41 2 26 31 -12 21 -50 25 -68 7z m56 -15 c2 -8 -6
-13 -22 -13 -25 0 -33 10 -19 24 10 10 36 3 41 -11z"/>
<path d="M334 1090 c0 -13 4 -16 10 -10 7 7 7 13 0 20 -6 6 -10 3 -10 -10z"/>
<path d="M567 1103 c-13 -13 -7 -33 11 -33 14 0 15 2 2 10 -13 9 -13 11 0 20
8 5 10 10 4 10 -6 0 -14 -3 -17 -7z"/>
<path d="M680 1025 l0 -85 38 0 c54 1 83 26 85 78 2 53 -21 77 -80 86 l-43 6
0 -85z m91 36 c27 -27 -3 -101 -42 -101 -16 0 -19 8 -19 58 0 32 3 61 6 65 8
8 36 -3 55 -22z"/>
<path d="M426 1087 c3 -10 9 -15 12 -12 3 3 0 11 -7 18 -10 9 -11 8 -5 -6z"/>
<path d="M600 1079 c0 -5 5 -7 10 -4 6 3 10 8 10 11 0 2 -4 4 -10 4 -5 0 -10
-5 -10 -11z"/>
<path d="M970 1076 c0 -8 -6 -17 -12 -19 -10 -4 -10 -8 -1 -14 6 -4 13 -26 15
-47 3 -39 29 -69 45 -52 4 5 2 11 -4 13 -8 3 -13 23 -13 49 0 28 4 43 10 39 6
-3 10 -1 10 4 0 6 -4 11 -10 11 -5 0 -10 7 -10 15 0 8 -7 15 -15 15 -8 0 -15
-6 -15 -14z"/>
<path d="M845 1050 c-11 -17 3 -24 20 -10 12 10 18 10 30 0 22 -18 18 -30 -8
-30 -13 0 -32 -6 -43 -14 -31 -23 -7 -51 45 -52 l42 -1 -3 56 -3 56 -37 3
c-20 2 -39 -2 -43 -8z m65 -54 c0 -18 -15 -36 -31 -36 -18 0 -26 20 -12 33 7
8 43 10 43 3z"/>
<path d="M1050 1045 c-10 -12 -10 -15 2 -15 8 0 19 5 26 12 8 8 15 8 26 -2 20
-16 11 -30 -18 -30 -32 0 -53 -26 -39 -48 7 -11 25 -17 54 -18 l44 -2 -4 52
c-2 28 -8 54 -15 58 -19 13 -63 9 -76 -7z m68 -62 c-4 -22 -48 -31 -48 -10 0
19 10 27 32 27 13 0 18 -6 16 -17z"/>
<path d="M2083 950 c0 -25 2 -35 4 -22 2 12 2 32 0 45 -2 12 -4 2 -4 -23z"/>
<path d="M310 875 l0 -95 60 0 c47 0 60 3 60 15 0 11 -12 15 -45 15 l-45 0 0
80 c0 64 -3 80 -15 80 -12 0 -15 -17 -15 -95z"/>
<path d="M2152 935 c0 -16 2 -22 5 -12 2 9 2 23 0 30 -3 6 -5 -1 -5 -18z"/>
<path d="M2182 935 c0 -16 2 -22 5 -12 2 9 2 23 0 30 -3 6 -5 -1 -5 -18z"/>
<path d="M2218 933 c5 -21 7 -23 10 -9 2 10 0 22 -6 28 -6 6 -7 0 -4 -19z"/>
<path d="M2252 935 c0 -16 2 -22 5 -12 2 9 2 23 0 30 -3 6 -5 -1 -5 -18z"/>
<path d="M2288 935 c-3 -14 -1 -25 3 -25 5 0 9 11 9 25 0 14 -2 25 -4 25 -2 0
-6 -11 -8 -25z"/>
<path d="M2323 935 c0 -12 6 -21 16 -22 10 -1 16 7 16 22 0 15 -6 23 -16 22
-10 -1 -16 -10 -16 -22z"/>
<path d="M470 905 c-18 -22 -4 -31 24 -16 26 15 46 8 46 -15 0 -9 -10 -14 -29
-14 -16 0 -37 -7 -45 -16 -19 -18 -19 -20 -6 -44 8 -15 21 -19 64 -19 l53 1
-4 47 c-8 89 -9 91 -52 91 -22 0 -44 -6 -51 -15z m65 -81 c0 -10 -8 -20 -18
-22 -22 -4 -35 27 -16 39 20 12 34 5 34 -17z"/>
<path d="M610 849 c0 -55 3 -69 15 -69 11 0 15 12 15 49 0 51 18 78 45 67 11
-4 15 -21 15 -61 0 -43 3 -55 15 -55 13 0 15 12 13 68 l-3 67 -57 1 -58 1 0
-68z"/>
<path d="M779 904 c-18 -22 -17 -87 1 -109 9 -11 24 -16 47 -13 26 3 33 1 31
-11 -3 -11 -15 -16 -41 -16 -38 0 -51 -18 -21 -29 29 -11 61 -6 77 12 13 14
17 38 17 99 l0 80 -49 1 c-34 1 -53 -3 -62 -14z m65 -10 c22 -9 22 -80 0 -88
-36 -14 -62 52 -32 82 14 14 12 14 32 6z"/>
<path d="M930 863 c0 -32 4 -63 8 -70 4 -7 29 -11 60 -11 l52 1 0 69 c0 54 -3
68 -15 68 -11 0 -15 -12 -15 -49 0 -52 -16 -76 -44 -65 -12 5 -16 19 -16 60 0
41 -4 54 -15 54 -12 0 -15 -13 -15 -57z"/>
<path d="M1095 900 c-18 -19 -17 -20 1 -20 11 0 25 5 31 11 15 15 43 4 43 -16
0 -11 -10 -15 -35 -15 -28 0 -38 -5 -47 -25 -17 -38 3 -54 65 -54 l52 1 -3 56
c-2 32 -9 63 -14 70 -16 19 -73 15 -93 -8z m70 -75 c0 -13 -8 -21 -22 -23 -17
-3 -23 2 -23 16 0 10 3 22 7 26 13 13 38 1 38 -19z"/>
<path d="M1249 904 c-18 -22 -17 -87 1 -109 9 -11 24 -16 47 -13 26 3 33 1 31
-11 -2 -11 -15 -16 -38 -17 -54 -2 -56 -4 -36 -19 27 -20 70 -19 89 3 13 14
17 38 17 99 l0 80 -49 1 c-34 1 -53 -3 -62 -14z m79 -50 c2 -31 -1 -43 -14
-48 -36 -14 -62 52 -32 82 24 24 43 9 46 -34z"/>
<path d="M1423 912 c-22 -14 -33 -60 -22 -89 13 -34 26 -43 64 -43 36 0 60 14
51 29 -5 7 -14 7 -31 -1 -19 -8 -28 -8 -40 2 -26 21 -17 30 30 30 43 0 45 1
45 28 0 15 -5 33 -12 40 -13 13 -66 16 -85 4z m51 -18 c28 -11 18 -34 -14 -34
-32 0 -37 9 -18 28 14 14 12 14 32 6z"/>
<path d="M1991 656 c-12 -27 -19 -52 -15 -55 4 -3 9 0 11 7 3 6 15 12 28 12
13 0 26 -6 28 -12 4 -9 6 -8 6 2 0 8 -8 33 -18 55 l-19 40 -21 -49z m25 -23
c-11 -11 -19 6 -11 24 8 17 8 17 12 0 3 -10 2 -21 -1 -24z"/>
<path d="M2070 650 c0 -27 4 -50 8 -50 5 0 9 23 9 50 1 28 -3 50 -8 50 -5 0
-9 -22 -9 -50z"/>
<path d="M2402 650 c0 -39 2 -47 7 -26 9 41 31 46 31 7 0 -17 5 -31 11 -31 6
0 9 14 7 33 -2 24 -8 33 -25 35 -12 2 -24 11 -26 20 -3 9 -5 -8 -5 -38z"/>
<path d="M2358 680 c-5 -17 3 -80 11 -80 7 0 6 79 -2 86 -3 3 -7 0 -9 -6z"/>
<path d="M2105 650 c-7 -23 10 -50 32 -50 8 0 11 -5 8 -11 -4 -6 -14 -8 -24
-4 -13 5 -14 4 -3 -7 22 -22 47 3 50 51 3 40 2 41 -27 41 -21 0 -32 -6 -36
-20z m45 -16 c0 -31 -23 -28 -28 4 -2 15 2 22 12 22 11 0 16 -9 16 -26z"/>
<path d="M2191 656 c-15 -18 2 -56 23 -56 21 0 38 27 31 50 -7 23 -37 27 -54
6z m39 -21 c0 -16 -6 -25 -15 -25 -9 0 -15 9 -15 25 0 16 6 25 15 25 9 0 15
-9 15 -25z"/>
<path d="M2264 635 c1 -38 16 -49 16 -12 0 13 5 28 12 35 9 9 7 12 -8 12 -17
0 -20 -6 -20 -35z"/>
<path d="M2323 635 c0 -22 2 -30 4 -17 2 12 2 30 0 40 -3 9 -5 -1 -4 -23z"/>
<path d="M2481 631 c1 -35 2 -35 8 -7 9 41 31 46 31 7 0 -17 5 -31 10 -31 6 0
10 14 10 30 0 17 5 30 10 30 10 0 14 -13 11 -42 -1 -10 3 -18 9 -18 7 0 10 13
8 33 -3 31 -4 32 -50 33 l-48 1 1 -36z"/>
<path d="M2605 660 c-8 -14 3 -30 21 -30 8 0 14 -5 14 -11 0 -6 -9 -9 -20 -6
-11 3 -18 1 -14 -4 7 -13 31 -11 40 2 4 7 -4 20 -17 31 l-24 20 23 -5 c12 -3
20 -1 16 4 -7 12 -31 11 -39 -1z"/>
<path d="M169 578 c-5 -21 -3 -98 3 -98 4 0 8 15 9 33 l1 32 14 -32 c8 -18 18
-33 23 -33 4 0 13 15 19 33 l10 32 1 -32 c2 -54 21 -37 21 17 0 60 -15 65 -37
13 l-16 -38 -15 38 c-8 20 -19 37 -23 37 -5 0 -9 -1 -10 -2z"/>
<path d="M290 570 c0 -5 5 -10 10 -10 6 0 10 5 10 10 0 6 -4 10 -10 10 -5 0
-10 -4 -10 -10z"/>
<path d="M410 570 c0 -5 5 -10 10 -10 6 0 10 5 10 10 0 6 -4 10 -10 10 -5 0
-10 -4 -10 -10z"/>
<path d="M2170 531 c0 -26 5 -41 13 -41 25 0 39 18 35 46 -2 21 -9 30 -25 32
-21 3 -23 -1 -23 -37z m35 -1 c0 -13 -6 -25 -12 -27 -9 -3 -13 6 -13 27 0 21
4 30 13 28 6 -3 12 -15 12 -28z"/>
<path d="M2372 530 c-1 -33 1 -41 8 -30 8 12 12 13 19 2 5 -9 8 -4 7 16 -1 22
-4 28 -13 21 -8 -7 -13 -3 -16 13 -2 13 -5 3 -5 -22z"/>
<path d="M1610 544 c-8 -8 -13 -28 -13 -44 0 -36 19 -60 48 -60 24 0 53 26 41
37 -3 4 -12 -2 -20 -12 -7 -10 -20 -16 -28 -12 -21 8 -28 65 -11 83 18 17 18
17 38 -2 20 -20 33 -11 15 11 -16 19 -54 19 -70 -1z"/>
<path d="M290 515 c0 -19 5 -35 10 -35 6 0 10 16 10 35 0 19 -4 35 -10 35 -5
0 -10 -16 -10 -35z"/>
<path d="M330 515 c0 -19 5 -35 10 -35 6 0 10 14 10 31 0 20 4 29 13 26 7 -2
11 -15 9 -30 -2 -15 1 -27 7 -27 6 0 11 16 11 35 0 32 -2 35 -30 35 -28 0 -30
-3 -30 -35z"/>
<path d="M410 515 c0 -19 5 -35 10 -35 6 0 10 16 10 35 0 19 -4 35 -10 35 -5
0 -10 -16 -10 -35z"/>
<path d="M450 516 c0 -20 5 -36 10 -36 6 0 10 14 10 30 0 17 5 30 10 30 6 0
10 -13 10 -30 0 -16 5 -30 11 -30 6 0 9 14 7 33 -2 27 -8 33 -30 35 -26 3 -28
1 -28 -32z"/>
<path d="M534 536 c-10 -27 1 -50 26 -57 18 -4 21 -8 10 -12 -8 -3 -22 -8 -30
-11 -8 -3 -1 -4 15 -3 28 2 30 5 33 50 3 45 2 47 -23 47 -14 0 -28 -6 -31 -14z
m43 -12 c8 -20 -13 -42 -27 -28 -12 12 -3 44 11 44 5 0 12 -7 16 -16z"/>
<path d="M1742 537 c-18 -21 -42 -97 -32 -97 6 0 10 5 10 10 0 6 11 10 24 10
14 0 28 -4 31 -10 3 -5 10 -10 15 -10 6 0 -24 98 -34 108 -2 1 -8 -4 -14 -11z
m18 -47 c0 -19 -11 -26 -23 -14 -8 8 3 34 14 34 5 0 9 -9 9 -20z"/>
<path d="M2244 536 c-9 -24 4 -48 23 -44 24 4 24 52 0 56 -9 2 -20 -4 -23 -12z
m36 -16 c0 -11 -7 -20 -15 -20 -8 0 -15 9 -15 20 0 11 7 20 15 20 8 0 15 -9
15 -20z"/>
<path d="M2316 542 c-2 -4 4 -8 14 -8 10 0 16 4 14 8 -3 4 -9 8 -14 8 -5 0
-11 -4 -14 -8z"/>
<path d="M2434 535 c-9 -23 3 -45 23 -44 17 1 17 2 1 6 -19 5 -25 43 -8 43 6
0 10 -4 10 -10 0 -5 4 -10 10 -10 5 0 7 7 4 15 -4 8 -13 15 -20 15 -8 0 -17
-7 -20 -15z"/>
<path d="M2492 520 c0 -19 2 -27 5 -17 2 9 2 25 0 35 -3 9 -5 1 -5 -18z"/>
<path d="M1820 488 c0 -28 2 -49 4 -47 8 9 12 99 4 99 -4 0 -8 -23 -8 -52z"/>
<path d="M2312 505 c15 -16 20 -17 30 -6 11 11 10 13 0 7 -7 -4 -21 -2 -30 5
-15 12 -15 11 0 -6z"/>
<path d="M555 390 c-3 -5 -1 -10 4 -10 6 0 11 5 11 10 0 6 -2 10 -4 10 -3 0
-8 -4 -11 -10z"/>
<path d="M623 393 c-7 -2 -13 -11 -13 -19 0 -8 -5 -14 -12 -14 -9 0 -9 -3 0
-12 7 -7 12 -27 12 -45 0 -18 5 -33 10 -33 6 0 10 18 10 39 0 22 5 42 13 44
10 4 10 6 0 6 -21 2 -14 21 7 21 11 0 20 5 20 10 0 10 -26 12 -47 3z"/>
<path d="M810 390 c0 -5 5 -10 10 -10 6 0 10 5 10 10 0 6 -4 10 -10 10 -5 0
-10 -4 -10 -10z"/>
<path d="M960 334 c0 -38 4 -63 9 -59 12 6 10 125 -1 125 -5 0 -8 -30 -8 -66z"/>
<path d="M312 333 c-20 -55 -21 -86 -1 -50 12 21 55 23 63 2 3 -8 10 -15 15
-15 5 0 1 27 -11 60 -11 33 -26 60 -33 60 -6 0 -22 -26 -33 -57z m47 -10 c1
-7 -6 -13 -14 -13 -16 0 -19 17 -8 46 6 16 7 16 14 -2 4 -10 8 -25 8 -31z"/>
<path d="M495 370 c3 -5 1 -10 -6 -10 -8 0 -7 -5 2 -17 8 -9 13 -18 12 -20 -2
-1 -3 -14 -3 -28 0 -17 6 -25 17 -25 13 0 14 3 5 12 -15 15 -16 54 -2 63 6 4
5 12 -4 21 -17 16 -30 19 -21 4z"/>
<path d="M420 314 c0 -24 5 -44 10 -44 6 0 10 16 10 35 0 24 5 35 15 35 8 0
15 4 15 9 0 5 -11 9 -25 9 -23 0 -25 -4 -25 -44z"/>
<path d="M550 315 c0 -25 5 -45 10 -45 6 0 10 20 10 45 0 25 -4 45 -10 45 -5
0 -10 -20 -10 -45z"/>
<path d="M664 320 c3 -57 16 -62 16 -7 0 26 -4 47 -9 47 -5 0 -8 -18 -7 -40z"/>
<path d="M722 348 c-14 -14 -15 -47 -3 -66 11 -18 53 -12 59 8 5 13 3 13 -11
2 -21 -18 -37 -7 -37 23 0 28 17 42 33 26 17 -17 31 -13 17 4 -15 18 -42 19
-58 3z"/>
<path d="M810 315 c0 -25 5 -45 10 -45 6 0 10 20 10 45 0 25 -4 45 -10 45 -5
0 -10 -20 -10 -45z"/>
<path d="M865 350 c-4 -6 3 -9 16 -7 12 1 24 -4 26 -10 3 -8 -4 -13 -15 -13
-23 0 -46 -25 -37 -40 3 -5 22 -10 41 -10 32 0 34 2 34 33 0 18 -5 38 -12 45
-15 15 -45 16 -53 2z m45 -49 c0 -14 -18 -23 -30 -16 -6 4 -8 11 -5 16 8 12
35 12 35 0z"/>
</g>
</svg>
